<?xml version="1.0" encoding="utf-8"?>
<!-- Generator: Adobe Illustrator 15.1.0, SVG Export Plug-In . SVG Version: 6.00 Build 0)  -->
<!DOCTYPE svg PUBLIC "-//W3C//DTD SVG 1.1//EN" "http://www.w3.org/Graphics/SVG/1.1/DTD/svg11.dtd">
<svg version="1.1" id="Shape_1_1_" xmlns="http://www.w3.org/2000/svg" xmlns:xlink="http://www.w3.org/1999/xlink" x="0px" y="0px"
	 width="800px" height="800px" viewBox="0 0 800 800" enable-background="new 0 0 800 800" xml:space="preserve">
<rect x="274.029" y="79.563" fill-rule="evenodd" clip-rule="evenodd" fill="#F2B423" width="130.337" height="143.4"/>
<g id="Shape_1">
	<g>
		<path fill-rule="evenodd" clip-rule="evenodd" fill="#F2B423" d="M788.041,525.27h-56.155v-15.551h0.863
			c7.157,0,12.959-5.802,12.959-12.958c0-7.157-5.802-12.959-12.959-12.959H511.583c-7.156,0-12.959,5.802-12.959,12.959
			c0,7.156,5.803,12.958,12.959,12.958h0.864v15.551h-29.374V330.021h0.864c7.156,0,12.959-5.803,12.959-12.959
			s-5.803-12.959-12.959-12.959h-0.864v-28.51c0-30.012-24.416-54.428-54.428-54.428h-0.863v-73.37l21.479-13.218
			c6.096-3.752,7.995-11.734,4.245-17.828c-3.751-6.094-11.735-7.995-17.828-4.246l-7.896,4.859V81.209h0.863
			c14.769,0,26.782-12.014,26.782-26.781V26.781C455.428,12.014,443.414,0,428.646,0H248.948c-14.769,0-26.782,12.014-26.782,26.781
			v27.646c0,14.768,12.014,26.781,26.782,26.781h0.863v139.957H69.25c-30.011,0-54.428,24.416-54.428,54.428v28.51h-0.864
			C6.802,304.104,1,309.906,1,317.063s5.802,12.959,12.959,12.959h0.864v443.196c0,14.769,12.014,26.782,26.782,26.782h414.687
			c14.768,0,26.781-12.014,26.781-26.782V606.479h29.374v166.738c0,14.769,12.014,26.782,26.781,26.782h165.875
			c14.769,0,26.782-12.014,26.782-26.782v-28.51h14.687c26.471,0,48.577-18.999,53.428-44.074V533.234
			C798.045,528.558,793.428,525.27,788.041,525.27z M248.948,55.291c-0.478,0-0.864-0.387-0.864-0.863V26.781
			c0-0.476,0.387-0.863,0.864-0.863h179.697c0.478,0,0.864,0.388,0.864,0.863v27.646c0,0.477-0.387,0.863-0.864,0.863H248.948z
			 M275.73,210.934V81.209h126.134v52.104L275.73,210.934z M401.864,163.746v57.42h-93.309L401.864,163.746z M262.771,482.073
			c15.72,0,28.51,12.79,28.51,28.51c0,15.721-12.79,28.51-28.51,28.51c-15.721,0-28.511-12.789-28.511-28.51
			C234.261,494.863,247.051,482.073,262.771,482.073z M40.741,275.594c0-15.72,12.79-28.51,28.51-28.51h180.561v57.02H40.741
			V275.594z M139.229,774.082H41.605c-0.477,0-0.864-0.387-0.864-0.864V330.021h98.488V774.082z M457.155,773.218
			c0,0.478-0.387,0.864-0.863,0.864H165.146V330.021h84.665v127.705c-23.772,5.829-41.468,27.311-41.468,52.856
			c0,30.012,24.416,54.428,54.428,54.428c30.011,0,54.427-24.416,54.427-54.428c0-25.546-17.694-47.025-41.468-52.856V330.021
			h181.425V773.218z M457.155,304.104H275.73v-57.02h152.915c15.721,0,28.51,12.79,28.51,28.51V304.104z M512.447,580.562h-29.374
			v-29.374h29.374V580.562z M538.365,551.188h3.895c0.397,0,0.743,0.27,0.838,0.653l7.18,28.721h-11.912V551.188z M705.968,773.218
			c0,0.478-0.388,0.864-0.864,0.864H539.229c-0.477,0-0.863-0.387-0.863-0.864V606.479h28.51c3.991,0,7.758-1.839,10.215-4.983
			s3.326-7.246,2.356-11.118l-9.797-39.19h136.318V773.218z M705.968,525.27H538.365v-15.551h167.603V525.27z M775.082,690.28
			c0,15.721-12.79,28.51-28.51,28.51h-14.687V551.188h43.196V690.28z M262.771,580.562c-37.633,0-68.251,30.618-68.251,68.251
			s30.618,68.25,68.251,68.25s68.25-30.617,68.25-68.25S300.404,580.562,262.771,580.562z M262.771,691.145
			c-23.343,0-42.333-18.991-42.333-42.332c0-23.342,18.99-42.333,42.333-42.333c23.342,0,42.332,18.991,42.332,42.333
			C305.104,672.153,286.113,691.145,262.771,691.145z"/>
	</g>
</g>
<rect x="530.108" y="643.109" fill-rule="evenodd" clip-rule="evenodd" fill="#F2B423" width="183.77" height="139.253"/>
<rect x="30.166" y="322.37" fill-rule="evenodd" clip-rule="evenodd" fill="#F2B423" width="119.849" height="465.7"/>
<circle fill-rule="evenodd" clip-rule="evenodd" fill="#F2B423" cx="264.158" cy="508.421" r="37.667"/>
<polygon fill-rule="evenodd" clip-rule="evenodd" fill="#FFFFFF" points="308.556,221.166 274.326,221.166 275.73,210.934 
	427.782,117.363 427.782,147.796 "/>
</svg>
